<?xml version="1.0" encoding="UTF-8"?>
<!DOCTYPE svg PUBLIC "-//W3C//DTD SVG 1.1//EN" "http://www.w3.org/Graphics/SVG/1.1/DTD/svg11.dtd">
<!-- Creator: CorelDRAW 2021 (64-Bit) -->
<svg xmlns="http://www.w3.org/2000/svg" xml:space="preserve" width="8.5in" height="11in" version="1.1" style="shape-rendering:geometricPrecision; text-rendering:geometricPrecision; image-rendering:optimizeQuality; fill-rule:evenodd; clip-rule:evenodd"
viewBox="0 0 8500 11000"
 xmlns:xlink="http://www.w3.org/1999/xlink"
 xmlns:xodm="http://www.corel.com/coreldraw/odm/2003">
 <defs>
  <style type="text/css">
   <![CDATA[
    .fil0 {fill:black}
   ]]>
  </style>
 </defs>
 <g id="Layer_x0020_1">
  <metadata id="CorelCorpID_0Corel-Layer"/>
  <path class="fil0" d="M5073.92 6012.35l583.33 0 0 583.33 -576.39 0 -6.94 -583.33zm-2361.11 0l583.33 0 0 583.33c-132.12,0 -482.57,-25.1 -583.33,13.82l0 -597.15zm1236.11 -2361.11l472.22 0c-14.11,60.55 -41.45,78.35 -55.56,138.89l-361.11 0 -55.56 -138.89zm1888.52 138.7l-346.85 0.19c-14.11,-60.54 -41.45,-78.34 -55.56,-138.89l472.22 0 -69.81 138.7zm-1152.78 -138.51l472.59 -0.19c-14.1,60.55 -41.45,78.35 -55.56,138.89l-347.22 0 -69.82 -138.7zm-1069.44 138.51l-346.85 0.19c-7.63,-30.52 -15.62,-42.35 -27.78,-67.57 -25.55,-53.01 -14.5,-4.84 -27.78,-71.31l472.22 0 -69.81 138.7zm-1152.78 -138.51l472.59 -0.19c-14.11,60.55 -41.45,78.35 -55.56,138.89l-347.22 0 -69.81 -138.7zm1722.59 -750.19c112.46,0 261.58,479.74 263.89,583.33l-527.78 0c2.16,-96.96 149.77,-583.33 263.89,-583.33zm736.11 111.11c46.37,3.86 207.27,64.81 249.79,83.54 77.43,34.11 151.16,64.28 226.89,106.44l412.21 268.35c-21.23,17.27 -57.08,14.79 -94.07,14.69l-378.15 -0.8 -246.64 -308.92c-67.13,-76.25 -134.23,-109.83 -170.03,-163.3zm-1875 472.22l-486.11 0c127.81,-111.09 256.17,-192.31 403.37,-277.19 84.63,-48.8 396.96,-187.66 485.52,-195.03l-75.69 75.33c-65.74,48.62 -308.39,326.83 -327.09,396.89zm1847.22 -486.11c0,-2.76 5.83,3.08 5.85,5.85l-5.85 -5.85zm-1430.56 0l4.14 4.14c-0.27,-0.27 -5.52,-2.76 -4.14,-4.14zm972.22 -55.56c82.05,6.83 150.54,57.04 219.06,89.94 136.55,65.57 445.85,341.11 475.39,451.72l-513.89 0c-45.57,-195.6 -97.06,-383.87 -180.56,-541.67zm-680.56 541.67l-513.89 0c32.7,-122.44 470.6,-523.04 694.44,-541.67 -83.49,157.79 -134.98,346.07 -180.56,541.67zm347.22 -805.56l0 69.44c-636.43,0 -1233.56,268.41 -1684.85,648.48 -205.31,172.9 -201.26,106.99 -69.78,370.04 112.58,225.24 27.1,175.93 587.96,175.93 56.37,0 113.29,-130.31 125,-180.56l27.78 0c16.13,78.74 64.94,180.56 152.78,180.56l430.56 0c76.27,0 93.13,-150.74 152.78,-194.44 7.24,31.09 55.65,138.09 74.7,161.41 39.51,48.33 121.69,33.04 203.07,33.04l0 2652.78 -652.78 0 0 -666.67c0,-33.39 -22.5,-40.83 -41.67,-69.44l-708.33 0 -119.04 -700.4c-17.16,-104.13 -10.85,-188.49 -103.18,-188.49 -130.94,0 -40.91,287.18 -17.68,420.46 53.29,305.7 87.12,452.65 87.12,776.13 0,147.41 0,294.82 0,442.23 -70.08,-27.07 -168.12,-13.33 -248.05,-14.02 -126.13,-1.09 -138.65,3.2 -196.4,69.65 28.96,124.29 85.72,97.22 305.56,97.22l3736.11 0c173.37,0 132.33,-141.95 52.31,-163.54 -41.6,-11.22 -294.83,-3.13 -357.94,-3.13 -42.56,-95.34 -8.59,-712.07 10.02,-823.39 20.9,-125.05 39.5,-236.86 59.41,-357.26 32.21,-194.81 123.6,-444.35 -27.69,-444.35 -89.7,0 -101.81,263.54 -126.96,414.71 -24.67,148.36 -47.59,329.17 -81.38,474.18l-708.33 0 -38.69 44.64 -2.98 691.47 -652.78 0 0 -2638.96c86.6,-33.45 153.12,14.23 203.07,-46.86 19.05,-23.3 67.46,-130.32 74.7,-161.41 59.65,43.71 76.51,194.44 152.78,194.44l430.56 0c90.61,0 135.45,-106.2 152.78,-180.56l27.78 0c11.71,50.25 68.63,180.56 125,180.56 531.18,0 483.13,53.16 589.26,-175.93 113.89,-245.85 195.04,-174.51 -257.87,-516.57 -64.65,-48.82 -127.59,-89.8 -202.09,-131.25 -214.88,-119.55 -411.63,-216.03 -654.08,-274.41l-22.35 -5.43c-203.61,-53.26 -361.16,-90.86 -619.53,-90.86 0,-102.81 10.37,-103.2 -83.33,-152.78 -31.3,16.56 -83.33,37.23 -83.33,83.33z"/>
  <path class="fil0" d="M782.26 4734.57c0,-325.27 22.28,-564.2 94.39,-850.14 91.21,-361.66 180.16,-572.59 354.76,-895.15 26.82,-49.56 51.54,-82.63 79.27,-129.06 167.08,-279.78 386.98,-519.2 627.59,-733.52 157.08,-139.91 364.9,-294.95 547.93,-396.52 294.82,-163.61 548.17,-269.75 893.13,-356.74 511.21,-128.91 1088.98,-131.01 1600.21,-2.82 202,50.65 293.52,86.46 474.69,150.31 184.91,65.17 383.71,184.67 549.6,283.73 745.91,445.43 1276.89,1234.74 1486.78,2068.78 128.74,511.57 131.19,1088.39 2.82,1599.98 -105.3,419.66 -268.46,800.29 -516.77,1149.98 -271.84,382.84 -482.85,579.54 -839.3,841.41 -75.62,55.56 -156.38,108.85 -253.59,162.93 -51.39,28.59 -81.52,48.34 -133.89,74.58l-436.22 186.88c-889.31,302.15 -1684.39,244.41 -2543.27,-114.89 -327.48,-137 -734.21,-431.66 -991.6,-689.06 -143.17,-143.17 -258.34,-286.92 -379.56,-453.79l-163.03 -253.63c-258.39,-465.56 -453.94,-1010.2 -453.94,-1643.28zm-152.78 -180.56c0,392.54 2.84,607.34 102.6,996.37 46.67,181.99 141.07,470.7 226,633.74 26.52,50.92 45.74,87.85 71.5,138.61l151.43 264.76c1.5,2.36 3.65,5.84 5.15,8.2 29.68,46.89 55.06,82.27 90.21,130.87 128.38,177.45 147.37,193.79 287.03,351.87l321.88 317c294.88,230.41 441.01,334.57 785.74,505.85 312.3,155.18 891.06,333.28 1389.02,333.28 573.94,0 947.29,-48.46 1466.53,-255.69l155.65 -68.32c476.66,-227.72 607.62,-360.22 957.05,-652.31l154.81 -164.64c35.13,-44.03 70.41,-67.54 107.38,-114.84 68.13,-87.19 124.28,-155.95 186.46,-244.1 121.58,-172.37 222.15,-343.8 319.55,-541.56 163.52,-332.01 333.13,-900.93 333.13,-1389.09 0,-535.3 -29.64,-827.43 -202.96,-1324.82 -34.55,-99.14 -80.36,-215.11 -125.64,-304.91 -221.64,-439.58 -317.85,-568.46 -605.32,-894.68 -176.11,-199.83 -355.59,-351.18 -574.08,-509.25 -178.61,-129.22 -338.44,-215.27 -542.82,-318.29 -377.43,-190.25 -965.94,-328.6 -1393.62,-328.6 -528.18,0 -851.67,41.48 -1310.93,202.94 -455.74,160.22 -733.74,353.7 -1091.97,630.27 -98.89,76.34 -353.56,331.62 -424.63,422.59 -281.59,360.37 -473.15,650.26 -632.58,1089.66l-50.38 156.18c-81.27,236.69 -156.17,641.72 -156.17,928.92z"/>
 </g>
</svg>
